<?xml version="1.0" encoding="UTF-8"?>
<svg id="Layer_2" data-name="Layer 2" xmlns="http://www.w3.org/2000/svg" viewBox="0 0 152.2 259.97">
  <defs>
    <style>
      .cls-1 {
        fill: #003a17;
        stroke: #231f20;
        stroke-miterlimit: 10;
      }
    </style>
  </defs>
  <g id="Layer_2-2" data-name="Layer 2">
    <g>
      <path class="cls-1" d="m.91,143.88S26.9,133.82,73.46,3.17v132.25s-12.71,3.24-10.08,16.4c.58,2.9,1.65,5.14,2.88,6.85,2.88,4,7.58,5.94,12.29,5.45,4.3-.44,10.05-2.52,11.71-10.19,3.41-15.77-10.45-18.51-10.45-18.51l.5-132.25s35.84,112.15,71.18,141.25c0,0-43.81,52.63-44.8,78.29h-58.74s-7.47-41-47.04-78.83Z"/>
      <path class="cls-1" d="m41.98,245.19s-10.32-6.07-4.32-12.32c1.91-1.98,4.52-3.02,7.19-3.02h62.92c2.6,0,5.15.82,7.28,2.41,3.52,2.64,6.3,7.26-4.37,12.93,0,0,14.35,6.09,3.41,12.6-1.88,1.12-4,1.68-6.15,1.68h-63.17c-1.99,0-3.95-.65-5.55-1.91-2.93-2.29-5.6-6.56,2.78-12.37Z"/>
    </g>
  </g>
</svg>